<svg width="320" height="241" viewBox="0 0 320 241" fill="none" xmlns="http://www.w3.org/2000/svg">
<path d="M243.983 44.8548C246.425 48.7849 247.296 52.2382 247.296 56.7563H241.278C241.278 53.164 240.725 50.9998 238.865 48.0076L243.983 44.8548Z" fill="black"/>
<path d="M212.101 51.4191L216.074 46.9183C220.75 51.01 222.001 55.4713 222.001 61.3833H215.983C215.983 56.753 215.532 54.4213 212.101 51.4191Z" fill="black"/>
<path fill-rule="evenodd" clip-rule="evenodd" d="M169.985 64.1176C169.591 62.7519 169.378 60.8462 170.393 59.1056C172.593 55.3309 175.895 53.4518 179.726 52.5183C182.221 51.9104 184.403 52.6902 185.981 54.164C187.432 55.5197 188.309 57.3793 188.812 59.1073C189.327 60.8746 189.535 62.7923 189.436 64.5398C189.343 66.1891 188.951 68.134 187.847 69.5999C185.413 72.8338 181.897 73.5015 178.738 73.1683C177.173 73.0032 175.79 72.0478 174.874 71.2808C173.836 70.412 172.826 69.2963 171.987 68.1075C171.157 66.9308 170.397 65.5464 169.985 64.1176ZM179.504 67.2227C181.295 67.3868 182.314 66.9595 183.032 66.0066C183.034 66.0036 183.058 65.9691 183.094 65.8901C183.134 65.8037 183.181 65.6802 183.228 65.5148C183.323 65.1792 183.397 64.7361 183.428 64.2029C183.489 63.1258 183.356 61.8864 183.032 60.7755C182.697 59.6254 182.24 58.886 181.863 58.5335C181.612 58.299 181.473 58.2614 181.156 58.3385C178.53 58.9785 176.847 60.0503 175.676 61.9819C175.679 62.0593 175.696 62.2121 175.769 62.4622C175.941 63.0594 176.33 63.8393 176.911 64.6626C177.484 65.4737 178.148 66.1936 178.746 66.6937C179.148 67.0305 179.392 67.1621 179.476 67.2069C179.49 67.2144 179.499 67.2194 179.504 67.2227Z" fill="black"/>
<path fill-rule="evenodd" clip-rule="evenodd" d="M139.666 63.7867L159.384 79.2199L160.948 90.5648L162.411 112.637L144.945 130.287L104.304 102.763L139.666 63.7867ZM126.073 87.7081L136.502 76.2136C136.363 78.8278 136.231 81.4427 136.152 84.0595L126.073 87.7081ZM115.145 99.7523L117.46 97.2016L136.146 90.4377C136.334 94.5706 136.961 98.6814 137.373 102.797L115.145 99.7523ZM140.741 120.194L120.591 106.547L138.117 108.947C138.874 112.722 140.104 116.394 140.741 120.194ZM156.228 110.347L146.783 119.892C146.326 116.733 145.431 113.661 144.659 110.564L155.834 104.406L156.228 110.347ZM155.112 93.5158L155.396 97.7986L143.562 104.32C143.401 102.504 143.172 100.695 142.969 98.8831C142.57 95.5302 142.169 92.1733 142.117 88.8083L155.112 93.5158ZM153.753 82.4339L154.364 86.8685L142.229 82.4726C142.319 80.147 142.406 77.815 142.567 75.4931C142.598 74.9125 142.629 74.3314 142.659 73.7508L153.753 82.4339Z" fill="black"/>
<path d="M87.4027 89.8471C87.5929 87.5372 87.1784 84.776 86.1266 82.6947C80.5033 89.2578 81.0647 99.7128 80.8235 107.902C80.6956 112.219 80.4359 116.501 79.9919 120.795L74.0056 120.181L74.3138 117.201C74.6617 113.836 74.7548 110.454 74.848 107.072C74.9207 104.431 74.9934 101.79 75.1876 99.1556C75.6543 92.8251 76.7546 86.1717 80.1477 80.7418C81.4715 78.6234 83.3919 76.3578 86.095 76.226C88.9914 76.0849 90.6416 78.3839 91.3834 79.7725C93.0323 82.859 93.6862 86.8668 93.4005 90.3367C93.0496 94.5984 92.3375 98.8129 91.6254 103.028C90.9121 107.249 90.1988 111.47 89.8484 115.739C89.1655 124.06 90.1652 130.286 94.429 133.913L96.7167 135.859L92.8077 140.415L90.52 138.469C83.8314 132.779 83.1527 123.752 83.8505 115.251C84.2009 110.981 84.9143 106.759 85.6277 102.537C86.3398 98.3222 87.0519 94.108 87.4027 89.8471Z" fill="black"/>
<path d="M224.12 87.7629L218.784 90.5344C220.984 94.7335 220.597 97.2036 218.354 101.071L223.566 104.067C226.803 98.4847 227.248 93.7337 224.12 87.7629Z" fill="black"/>
<path d="M249.159 91.5171L243.159 91.9745C243.421 95.3873 243.352 98.1206 242.485 101.407L248.306 102.929C249.326 99.0587 249.462 95.4592 249.159 91.5171Z" fill="black"/>
<path fill-rule="evenodd" clip-rule="evenodd" d="M182.472 109.538C179.002 108.723 174.49 110.157 172.98 114.434C171.652 118.197 173.075 121.819 174.794 124.092C177.187 127.256 181.016 128.831 184.508 128.673C185.384 128.634 186.818 128.567 188.192 127.949C189.747 127.249 190.943 125.997 191.687 124.172C193.863 118.836 191.12 113.781 187.671 111.492C186.129 110.468 184.26 109.958 182.472 109.538ZM179.601 120.487C178.608 119.174 178.226 117.643 178.658 116.42C178.986 115.491 180.114 115.176 181.007 115.352C182.103 115.688 183.361 115.832 184.333 116.477C185.945 117.548 186.985 119.775 186.112 121.918C185.142 124.296 180.521 121.704 179.601 120.487Z" fill="black"/>
<path fill-rule="evenodd" clip-rule="evenodd" d="M180.665 133.562C176.732 131.372 171.023 132.363 168.612 136.363C166.734 139.479 166.787 142.686 168.444 145.211C169.967 147.533 172.58 148.869 175.105 149.182C178.363 149.585 183.066 149.645 184.975 146.38C185.796 144.976 185.922 143.448 185.868 142.281C185.812 141.082 185.55 139.955 185.307 139.114C184.896 137.695 184.264 136.536 183.364 135.57C182.502 134.645 181.516 134.036 180.665 133.562ZM174.821 138.632C175.34 138.252 176.589 138.158 177.727 138.791C178.623 139.291 179.232 139.767 179.524 140.775C179.7 141.379 179.831 142.008 179.856 142.559C179.882 143.108 179.816 143.13 179.303 143.25C178.374 143.467 177.301 143.415 175.847 143.235C174.755 143.1 173.873 142.529 173.482 141.934C172.964 141.145 173.325 140.19 173.769 139.452C174.039 139.114 174.476 138.886 174.821 138.632Z" fill="black"/>
<path fill-rule="evenodd" clip-rule="evenodd" d="M184.776 82.9648C182.895 82.7514 180.796 82.7868 178.875 83.3376C176.936 83.8935 174.917 85.0646 173.794 87.2838C172.474 89.8921 172.494 92.6793 172.748 94.9078C173.015 97.2537 173.988 99.0228 175.661 100.24C176.962 101.186 178.572 101.671 179.739 102.023L179.744 102.025C181.77 102.636 183.839 103.23 185.981 103.113C186.674 103.074 187.368 103.109 188.061 103.051C188.913 102.979 190.379 102.768 191.602 101.75C193.156 100.456 193.786 98.6546 194.04 97.1598C194.3 95.6384 194.237 94.0591 194.087 92.7285C193.934 91.3746 193.673 90.1361 193.454 89.2467C192.919 87.0674 191.575 85.8467 189.714 84.7905C188.538 84.1227 186.653 83.1776 184.776 82.9648ZM186.733 89.9962C188.546 91.0248 188.885 95.3348 187.823 97.0476C187.11 97.1689 186.369 97.0901 185.649 97.1297C184.304 97.2036 182.938 96.7311 181.671 96.3452C180.916 96.1166 179.378 95.8911 178.959 95.1266C178.215 93.7683 178.504 91.2926 179.168 89.9795C179.302 89.7151 179.63 89.3564 180.539 89.0957C181.466 88.83 182.717 88.7621 184.095 88.9183C184.678 88.9844 185.659 89.3864 186.733 89.9962Z" fill="black"/>
<path fill-rule="evenodd" clip-rule="evenodd" d="M160.714 30.0024C167.929 29.8897 177.962 33.7944 180.809 40.8816C186.61 40.1838 192.412 39.7321 198.119 39.643C205.866 39.5221 213.566 38.5527 221.244 37.5944C228.946 36.6333 236.831 35.6494 244.789 35.5252C249.93 35.4449 250.78 35.2041 253.677 34.9591L253.691 34.9579C256.653 34.7075 259.011 34.4533 264.378 34.3695C274.45 34.2123 279.84 39.844 279.998 49.8268C280.106 56.6917 276.472 61.9613 270.167 64.3869C258.644 68.8195 246.498 66.6937 234.45 68.859C230.474 70.1003 226.17 70.1941 222.293 71.7498C219.466 72.8839 214.238 74.1937 210.95 74.2451C207.805 74.2942 203.52 74.4755 201.022 76.715C222.275 80.0488 243.826 81.1326 265.305 81.8163C270.165 82.2327 274.786 83.8302 277.696 88.0391C280.179 91.6312 280.002 95.9462 278.296 99.6736C274.939 107.005 266.118 113.055 254.171 112.08C249.664 112.072 245.163 112.305 240.663 112.537C235.773 112.79 230.883 113.043 225.985 112.987C219.956 112.919 214.619 112.88 209.261 112.894C210.131 117.003 209.68 121.362 208.817 125.436C208.366 127.567 207.745 129.685 206.965 131.539C206.49 132.665 205.915 133.796 205.215 134.793C206.354 138.657 205.747 142.907 204.115 146.637C202.205 151.006 198.744 155.037 194.232 157.479C190.68 159.402 185.401 160.472 179.637 161.03C173.77 161.598 167.016 161.667 160.254 161.366C146.834 160.768 132.867 158.687 125.444 155.863C122.148 154.609 118.919 152.94 115.87 151.344C113.545 151.817 111.218 152.265 108.88 152.669C101.501 153.943 96.6475 154.954 89.0734 162.01C86.2102 164.677 82.9944 168.973 80.4185 172.757C79.1504 174.62 78.0723 176.307 77.3116 177.527C76.3931 179.001 75.5194 180.501 74.6402 181.998C72.9333 181.06 71.2253 180.123 69.5318 179.161C67.9837 178.281 65.863 177.058 63.5757 175.686C59.0957 173 55.6692 169.565 52.8226 167.016C42.234 157.534 40.886 147.072 40.1659 136.301C39.7786 130.509 40.1433 124.706 40.5068 118.922L40.5277 118.589C40.8297 113.809 41.1277 109.093 41.0528 104.335C40.9837 99.9473 40.457 95.5815 40.3277 91.1958C40.1933 86.6393 40.4539 81.8327 42.1765 77.2065C45.3297 68.7386 49.9412 62.7552 57.5667 58.7888C59.0618 58.0112 60.576 57.2773 62.1029 56.564C66.7367 58.5284 71.506 60.1762 76.3646 61.4976C80.0333 62.4954 84.0404 63.3661 87.8827 63.7749C91.7594 64.1874 94.2711 64.107 97.0427 63.3508C102.222 61.9374 106.47 59.3492 110.607 56.1682C114.989 52.7989 119.018 49 123.41 45.642C133.787 37.708 147.028 30.216 160.714 30.0024ZM120.555 55.7509C131.351 46.5603 145.954 36.2255 160.808 35.9936C165.251 35.9243 171.694 38.0766 174.502 41.7323C165.262 43.107 156.123 45.0268 147.003 47.0338L148.302 52.8846C164.719 49.2715 181.339 45.8976 198.213 45.6342C206.147 45.5104 214.031 44.5334 221.895 43.5521C229.683 42.5802 237.275 41.6352 244.883 41.5164C250.232 41.4329 251.239 41.1788 254.2 40.9285L254.201 40.9284C257.102 40.6831 259.305 40.4414 264.472 40.3607C271.31 40.254 273.874 43.1583 273.98 49.9207C274.049 54.2869 272 57.2578 267.998 58.7975C257.422 62.8661 244.683 60.7009 233.509 63.072C229.049 64.0183 224.29 64.4883 220.043 66.192C217.68 67.1401 213.199 68.2172 210.855 68.2538C208.051 68.2976 204.108 68.6483 200.772 69.9964C195.411 72.1626 193.938 76.3368 194.022 81.6272C217.475 85.6141 241.194 87.0432 264.948 87.8C269.995 88.2473 271.711 89.9498 272.738 91.4365C273.728 92.8679 273.889 94.8526 272.82 97.1883C267.508 108.791 251.222 106 240.69 106.546C225.745 107.32 210.779 106.809 195.819 107.043L195.913 113.034C198.315 112.997 200.717 112.957 203.119 112.933C203.917 116.703 203.729 120.418 202.929 124.2L202.888 124.39C202.369 126.849 201.652 130.239 199.741 132.005L198.139 133.484L199.056 135.459C200.137 137.785 200.03 140.97 198.598 144.245C197.179 147.489 194.6 150.46 191.358 152.215C188.923 153.533 184.665 154.523 179.055 155.066C173.548 155.599 167.092 155.673 160.523 155.38C147.278 154.79 134.093 152.739 127.592 150.265C124.493 149.086 121.433 147.485 118.197 145.792C113.409 143.289 108.488 141.093 103.325 139.467L101.511 145.181C103.273 145.735 105.048 146.255 106.766 146.937C99.6312 148.171 93.3913 149.782 84.9618 157.634C81.5741 160.791 78.0441 165.565 75.4368 169.396C74.2586 171.126 73.2396 172.708 72.4711 173.932C70.9551 173.07 68.8951 171.881 66.6802 170.553C62.1131 167.815 59.1939 164.663 56.8469 162.561C47.6783 154.35 46.8117 145.493 46.1705 135.903C45.8099 130.509 46.1579 124.907 46.5343 118.959C46.835 114.208 47.1488 109.25 47.07 104.241C47.0004 99.8255 46.4732 95.433 46.343 91.0199C46.2173 86.7574 46.4927 82.8519 47.8192 79.2895C50.5283 72.014 55.6927 66.3843 62.2722 63.1247C64.4411 63.981 69.1467 65.7461 74.7789 67.2779C78.6364 68.327 82.9768 69.2791 87.2433 69.733C91.4753 70.1833 94.8337 70.1665 98.6332 69.1297C104.86 67.4307 109.82 64.3443 114.285 60.9108C116.446 59.2499 118.523 57.4809 120.555 55.7509Z" fill="black"/>
<path fill-rule="evenodd" clip-rule="evenodd" d="M111.254 166.395C112.2 165.655 113.122 164.935 114.003 164.235L115.667 166.205L116.058 165.716C118.499 167.555 121.119 169.103 123.947 170.554C124.473 170.824 125.334 171.22 126.112 171.568C126.565 171.771 127.019 171.971 127.475 172.169L125.108 177.322C123.802 176.756 122.49 176.189 121.226 175.54C118.799 174.295 116.435 172.942 114.157 171.372C112.173 172.924 110.17 174.501 108.219 176.149C109.15 176.75 110.068 177.35 110.972 177.936C113.201 179.38 115.37 180.756 117.609 181.979C119.044 182.762 119.485 183.086 120.157 183.223L118.958 188.743C114.954 187.926 111.044 184.768 107.738 182.626C106.413 181.767 105.126 180.922 103.84 180.105C101.011 182.874 98.5942 185.773 96.9091 188.885C96.192 190.209 95.341 191.462 94.6608 192.805C93.9707 194.168 93.7632 195.057 93.8252 195.583L88.0448 196.224C87.7823 193.999 88.6565 191.863 89.4379 190.32C90.1418 188.929 91.0161 187.632 91.7579 186.263C94.2952 181.577 98.0647 177.526 102.033 173.955C105.032 171.256 108.267 168.729 111.254 166.395ZM186.725 173.409C185.586 171.621 184.455 169.819 183.353 167.999L188.37 165.142C189.543 167.078 190.751 168.998 191.978 170.919C193.691 170.226 195.448 169.66 197.241 169.194C198.644 168.83 201.612 168.058 204.551 167.741C206.116 167.572 207.862 167.508 209.453 167.784C210.993 168.05 212.947 168.739 214.086 170.558C214.796 171.693 215.144 172.96 214.987 174.281C214.835 175.564 214.239 176.633 213.542 177.472C212.214 179.073 210.166 180.261 208.315 181.134C206.983 181.761 205.504 182.329 204.11 182.816C206.723 183.587 209.436 184.363 211.216 184.809C211.778 184.95 212.397 185.088 213.053 185.235C215.87 185.864 218.577 187.258 221.402 187.667C221.713 187.712 222.027 187.746 222.341 187.766C222.341 187.766 222.341 187.766 222.188 190.583C222.173 190.858 222.056 193.401 222.018 193.399C221.524 193.37 221.032 193.317 220.543 193.246C219.798 193.139 218.599 192.92 217.567 192.442C215.912 191.675 214.238 191.299 212.244 190.851C211.47 190.678 210.648 190.493 209.76 190.271C207.984 189.826 205.407 189.092 202.922 188.362C203.986 190.205 205.012 192.22 205.619 194.245L200.032 195.821C199.213 193.091 197.376 190.356 195.536 187.307C193.697 184.257 191.766 181.247 189.806 178.206C188.045 179.138 186.325 180.141 184.605 181.141L181.613 176.303C183.305 175.32 184.996 174.333 186.725 173.409ZM195.102 175.779C195.805 176.871 196.51 177.968 197.21 179.07C197.646 178.928 198.16 178.772 198.731 178.599C200.705 178.002 203.354 177.199 205.772 176.06C206.298 175.812 210.559 173.705 208.431 173.337C207.635 173.199 206.523 173.204 205.194 173.347C202.715 173.615 200.138 174.283 198.716 174.651C197.492 174.969 196.285 175.336 195.102 175.779ZM163.371 179.57C153.175 182.141 142.557 183.514 132.117 184.049L132.11 183.92C131.445 185.989 130.813 188.037 130.266 190.089L142.818 188.707C142.806 188.709 142.808 188.708 142.824 188.705C143.663 188.522 144.459 188.194 145.251 187.876C145.251 187.876 145.25 187.876 146.373 190.478C146.408 190.559 147.51 193.074 147.485 193.084C147.032 193.267 146.574 193.439 146.113 193.603C145.489 193.825 144.35 194.216 143.474 194.313L130.172 195.777L129.748 192.15C129.462 193.365 129.211 194.583 129.006 195.811C128.705 197.611 128.307 199.398 128.141 201.289C128.039 202.443 128.053 203.41 128.177 204.189C130.324 203.897 132.359 203.486 134.488 203.056C136.783 202.592 139.087 202.182 141.392 201.763C144.259 201.242 147.381 200.675 150.52 200.562C151.307 200.463 152.082 200.295 152.859 200.142L152.864 200.141L154.029 205.668C152.969 205.878 151.87 206.16 150.782 206.197C148.103 206.289 145.512 206.758 142.678 207.271C141.908 207.41 141.12 207.553 140.307 207.692C138.985 207.918 137.553 208.205 136.07 208.502C133.324 209.052 130.549 209.527 127.778 209.944C125.983 210.215 124.136 209.579 123.309 207.904C122.178 205.618 122.154 202.969 122.344 200.809C122.535 198.639 123.022 196.348 123.262 194.909C124.168 189.486 125.923 184.139 127.586 179.072C128.036 177.7 128.479 176.35 128.897 175.024L134.461 176.672C134.29 177.216 134.117 177.756 133.944 178.294C143.375 177.705 152.848 176.395 161.907 174.11L163.371 179.57ZM172.078 186.238C170.143 186.451 168.535 186.674 167.158 187.052C167.531 188.332 167.985 189.621 168.486 190.942C168.918 190.854 169.319 190.771 169.651 190.699C172.705 190.04 175.341 188.823 177.052 186.849C177.376 186.475 177.658 186.143 177.887 185.833C175.942 185.766 174.006 186.026 172.078 186.238ZM164.01 195.411L163.895 197.223L163.898 197.225C164.207 197.323 164.492 197.413 164.846 197.524C165.413 198.977 165.941 200.399 166.39 201.863C166.695 202.857 166.926 203.954 167.282 205.315C167.621 206.61 167.986 208.003 168.83 209.087C169.266 208.767 173.459 205.666 173.505 205.728C173.204 205.186 173.076 204.519 172.922 203.929C172.836 203.601 172.742 203.218 172.642 202.812C172.328 201.536 171.99 200.272 171.57 199.025C176.147 199.524 180.751 199.738 185.323 200.276C187.271 200.505 189.013 201.47 191.01 201.57L191.309 195.936C190.544 195.898 189.804 195.636 189.081 195.408C188.29 195.158 187.2 194.814 186.024 194.676C183.077 194.329 180.122 194.114 177.271 193.883C178.823 193.012 180.275 191.899 181.506 190.478L181.556 190.42C182.036 189.867 182.859 188.919 183.44 187.825C184.043 186.691 184.653 184.896 183.841 182.958C183.396 181.895 182.551 181.296 181.922 180.978C181.289 180.658 180.62 180.488 180.059 180.387C178.931 180.185 177.648 180.162 176.525 180.194C174.256 180.258 171.904 180.58 171.422 180.633C166.977 181.122 162.034 181.77 158.229 186.082L161.66 188.928C162.139 190.521 162.701 192.055 163.272 193.533C163.52 194.173 163.767 194.798 164.01 195.411Z" fill="black"/>
<path d="M268.033 146.522C268.106 146.743 268.177 146.974 268.244 147.212C268.417 146.83 268.595 146.449 268.779 146.071C269.325 144.951 270.249 143.641 270.928 142.727C271.288 142.243 271.618 141.819 271.858 141.515C271.979 141.363 272.078 141.239 272.147 141.153L276.639 140.82L277.785 141.983L278.407 142.942C279.316 145.291 279.652 147.836 279.797 150.19C279.888 151.676 279.908 153.266 279.926 154.709C279.935 155.477 279.944 156.204 279.963 156.852C280.109 161.83 279.733 166.772 279.35 171.549C279.259 172.679 279.171 173.818 279.082 174.964C278.723 179.59 278.356 184.318 277.803 188.957L272.023 188.31C272.562 183.793 272.918 179.208 273.276 174.593C273.366 173.434 273.456 172.273 273.549 171.111C273.934 166.309 274.284 161.65 274.147 157.013C274.123 156.164 274.113 155.349 274.104 154.544L274.104 154.543C274.089 153.209 274.074 151.905 273.989 150.526C273.954 149.96 273.908 149.411 273.848 148.881C272.232 152.305 271.127 156.021 270.444 159.807C270.259 160.835 270.143 161.876 270.021 162.912L264.207 162.658C264.201 162.436 264.182 161.882 264.145 161.104C264.095 160.064 264.013 158.632 263.883 157.056C263.616 153.808 263.167 150.285 262.492 148.243C262.495 148.25 262.489 148.24 262.474 148.212C262.223 147.76 261.934 147.329 261.638 146.903L261.565 147.438C261.309 149.305 261.055 151.19 260.869 152.659C260.769 153.449 260.658 154.242 260.596 155.036C261.155 164.664 263.471 174.744 266.229 184.221L260.63 185.753C257.813 176.075 255.362 165.496 254.78 155.234C254.719 154.153 254.959 153.038 255.094 151.971C255.284 150.474 255.541 148.566 255.798 146.694C256.055 144.819 256.313 142.972 256.508 141.595C256.615 140.835 256.722 140.076 256.831 139.316L262.046 138.005C262.162 138.146 262.434 138.478 262.8 138.934C263.287 139.539 263.945 140.368 264.623 141.251C265.296 142.129 266.008 143.085 266.595 143.942C267.1 144.68 267.756 145.684 268.033 146.522Z" fill="black"/>
<path d="M244.576 161.14C244.796 162.307 244.98 163.702 245.105 165.232C245.832 167.609 246.703 169.936 247.608 172.353C248.037 173.497 248.473 174.661 248.905 175.861C250.248 179.592 251.497 183.531 251.977 187.598L246.196 188.239C245.873 185.502 245.124 182.743 244.167 179.887C243.038 184.483 240.662 189.478 235.626 191.24C233.575 191.957 231.67 191.46 230.217 190.627C228.828 189.832 227.676 188.646 226.774 187.533C224.976 185.316 223.546 182.564 222.949 181.521C220.696 177.585 219.332 173.351 218.264 169.219C217.788 167.375 217.361 165.514 216.947 163.704C216.428 161.443 215.928 159.262 215.346 157.147L220.968 155.693C221.584 157.932 222.106 160.211 222.615 162.43L222.626 162.479C223.043 164.299 223.451 166.082 223.908 167.848C224.929 171.797 226.146 175.48 228.036 178.784C228.799 180.117 229.923 182.289 231.348 184.047C232.058 184.923 232.685 185.489 233.177 185.771C233.405 185.901 233.538 185.933 233.586 185.94C236.277 186.344 238.129 180.12 238.509 178.573C239.471 174.651 239.609 170.015 239.347 166.239C239.062 165.275 238.801 164.3 238.573 163.315C238.148 161.481 237.507 158.633 236.974 156.252C236.707 155.059 236.466 153.981 236.293 153.201L236.012 151.938L241.731 150.812C241.794 151.009 241.884 151.293 241.994 151.644C242.213 152.347 242.513 153.321 242.834 154.407C243.466 156.541 244.218 159.239 244.576 161.14Z" fill="black"/>
</svg>
